<svg xmlns="http://www.w3.org/2000/svg" xmlns:xlink="http://www.w3.org/1999/xlink" viewBox="0 0 500 500"><defs><style>.cls-1,.cls-16,.cls-17,.cls-18,.cls-21,.cls-23,.cls-28,.cls-29,.cls-30,.cls-4,.cls-6{fill:none;}.cls-2{fill:#fff;}.cls-3{fill:#e4f1ff;}.cls-4{stroke:#1c004f;}.cls-16,.cls-18,.cls-21,.cls-23,.cls-28,.cls-29,.cls-30,.cls-4{stroke-linecap:round;}.cls-16,.cls-17,.cls-18,.cls-21,.cls-23,.cls-28,.cls-29,.cls-30,.cls-4,.cls-6{stroke-miterlimit:10;}.cls-16,.cls-17,.cls-18,.cls-23,.cls-28,.cls-29,.cls-30,.cls-4,.cls-6{stroke-width:0.5px;}.cls-14,.cls-5{fill:#9fccfb;}.cls-29,.cls-6{stroke:#fff;}.cls-7{fill:#1c004f;}.cls-8{fill:#b4d8f9;}.cls-9{fill:#71b7e2;}.cls-10{fill:#ff725e;}.cls-11{fill:#8cc2f2;}.cls-12{fill:#4e6cfc;}.cls-13{fill:#8ec3f4;}.cls-14,.cls-20{opacity:0.35;}.cls-15{clip-path:url(#clip-path);}.cls-16,.cls-17{stroke:#8ec3f4;}.cls-18{stroke:#1a2e9d;}.cls-19{fill:#21212a;}.cls-21{stroke:#4e6cfc;stroke-width:1.52px;}.cls-22{fill:#de001d;}.cls-23{stroke:#b70825;}.cls-24{fill:#f7c2a0;}.cls-25{fill:#e8977b;}.cls-26{fill:#556bff;}.cls-27{fill:#fffefc;}.cls-28{stroke:#f18884;}.cls-30{stroke:#315782;}</style><clipPath id="clip-path"><rect class="cls-1" x="219.97" y="201.14" width="24.29" height="15.53" rx="2.95"/></clipPath></defs><title>Asset 8</title><g id="Layer_2" data-name="Layer 2"><g id="OBJECTS"><rect id="_Path_" data-name="&lt;Path&gt;" class="cls-2" width="500" height="500"/><path class="cls-3" d="M282.67,381H148.22c-36.24,0-68.77-23.68-80.37-59.24-.26-.81-.52-1.62-.77-2.44C57,286.83,51.59,249,84.94,198.4s10.48-98,53.36-115.3S216,87.37,264.8,66.39s146.51-19.74,152.46,65.39-17.86,81.43-8.33,109.8S450.61,388.39,282.67,381Z"/><ellipse class="cls-3" cx="156.98" cy="428.54" rx="90.52" ry="24.18"/><line class="cls-4" x1="65.36" y1="380.93" x2="433.94" y2="380.93"/><path class="cls-5" d="M119.27,358.86h75.35a0,0,0,0,1,0,0v78.88a0,0,0,0,1,0,0H114.88a0,0,0,0,1,0,0V363.25A4.39,4.39,0,0,1,119.27,358.86Z" transform="translate(309.08 796.77) rotate(-179.94)"/><path class="cls-5" d="M114.93,358.81l79.7.09-25.1-20a9.82,9.82,0,0,0-6.14-2.14l-66.72-.08a1.84,1.84,0,0,0-1.3,3.15Z"/><path class="cls-5" d="M92.52,411.64l-.25-68.55c0-5.22,3.39-6.07,3.39-6.07l-.61,1.28c-.3.67.33,1.44.85,1.95l19,18.57-.09,78.87L95,417.56A8.42,8.42,0,0,1,92.52,411.64Z"/><path class="cls-6" d="M137.11,358.84l-18.86,0a3.33,3.33,0,0,0-3.33,3.32l0,19.91"/><line class="cls-6" x1="114.89" y1="394.64" x2="114.85" y2="434.37"/><line class="cls-6" x1="103.16" y1="347.44" x2="114.83" y2="358.82"/><path class="cls-6" d="M95.55,337l-.61,1.28c-.3.67.32,1.44.85,1.95l5.32,5.19"/><rect class="cls-7" x="179.71" y="117.99" width="138.47" height="263.34" rx="16.95"/><rect class="cls-2" x="185.72" y="124.52" width="126.46" height="250.28" rx="9.94"/><path class="cls-7" d="M219,121.26h60.37a0,0,0,0,1,0,0v8.92a9.41,9.41,0,0,1-9.41,9.41H227.92a9.41,9.41,0,0,1-9.41-9.41v-8.42A.5.5,0,0,1,219,121.26Z"/><path class="cls-8" d="M217.16,109.46a30.11,30.11,0,1,1-30.28-29.94A30.1,30.1,0,0,1,217.16,109.46Z"/><path class="cls-9" d="M209.46,109a22.89,22.89,0,1,1-23-22.76A22.89,22.89,0,0,1,209.46,109Z"/><path class="cls-10" d="M210.11,110A22.58,22.58,0,1,1,187.4,87.52,22.57,22.57,0,0,1,210.11,110Z"/><path class="cls-11" d="M210.11,110A22.58,22.58,0,1,1,187.4,87.52,22.57,22.57,0,0,1,210.11,110Z"/><path class="cls-9" d="M188.42,108.14l0-5.78h0a11.85,11.85,0,0,1,3.08.79,9.55,9.55,0,0,1,1.44.9l.08-.18.88-2.09.2-.48-1-1.07-.49.22a10.88,10.88,0,0,0-4.19-1.18l0-3.18-1-.79v.8H186l0,3.24c-4.46.45-6.57,3-6.55,5.93,0,4,3.44,5,6.62,5.75l0,5.72a10.9,10.9,0,0,1-5.74-2.14l-1.27,2.9a12.58,12.58,0,0,0,7,2.34v2.39l-1.11,0,1.12.75h2.34v-3.21c4.49-.48,6.62-3,6.6-5.93C195.07,109.88,191.6,108.9,188.42,108.14Zm-2.35-.59c-1.67-.47-2.9-1.1-2.91-2.47s.85-2.29,2.88-2.62Zm2.32-5.19Zm.08,14.31,0-5.06c1.72.47,3,1.12,3,2.53C191.44,115.37,190.56,116.35,188.47,116.67Z"/><path class="cls-2" d="M187.51,119l0,3.21h-2.35l0-3.17a12.54,12.54,0,0,1-7-2.34l1.27-2.9a10.9,10.9,0,0,0,5.74,2.14l0-5.72c-3.18-.76-6.59-1.77-6.62-5.75,0-2.92,2.09-5.48,6.56-5.93l0-3.24h2.34l0,3.18a12.26,12.26,0,0,1,5.82,1.71l-1.15,2.9a11.77,11.77,0,0,0-4.65-1.52l0,5.78c3.19.76,6.66,1.74,6.68,5.72C194.14,116,192,118.53,187.51,119Zm-2.42-12.24,0-5.09c-2,.32-2.88,1.36-2.87,2.62S183.43,106.3,185.09,106.77Zm5.37,6.59c0-1.41-1.28-2.06-3-2.53l0,5.06C189.58,115.57,190.46,114.59,190.46,113.36Z"/><path class="cls-8" d="M268.65,81.53a19.08,19.08,0,1,1-19.18-19A19.08,19.08,0,0,1,268.65,81.53Z"/><circle class="cls-9" cx="249.27" cy="81.34" r="14.5" transform="translate(-9.44 38.68) rotate(-8.71)"/><path class="cls-10" d="M264.19,81.86A14.31,14.31,0,1,1,249.8,67.63,14.31,14.31,0,0,1,264.19,81.86Z"/><path class="cls-11" d="M264.19,81.86A14.31,14.31,0,1,1,249.8,67.63,14.31,14.31,0,0,1,264.19,81.86Z"/><path class="cls-9" d="M250.44,80.7l0-3.66h0a7.44,7.44,0,0,1,1.95.49,6.4,6.4,0,0,1,.91.57l0-.11.56-1.32.13-.31-.66-.68-.31.15a6.74,6.74,0,0,0-2.66-.75v-2l-.63-.5v.51h-.86v2.05c-2.82.29-4.16,1.91-4.15,3.76,0,2.52,2.18,3.16,4.2,3.64l0,3.63a7,7,0,0,1-3.64-1.36l-.8,1.84A8,8,0,0,0,249,88.11v1.52h-.71l.71.48h1.49v-2c2.84-.31,4.19-1.91,4.18-3.76C254.66,81.8,252.46,81.18,250.44,80.7ZM249,80.32c-1-.3-1.83-.69-1.84-1.56s.54-1.46,1.83-1.66ZM250.42,77Zm.06,9.07,0-3.21c1.09.3,1.89.72,1.89,1.6S251.8,85.89,250.48,86.1Z"/><path class="cls-2" d="M249.87,87.58v2h-1.49v-2a8,8,0,0,1-4.45-1.48l.8-1.83a7,7,0,0,0,3.64,1.35l0-3.63c-2-.47-4.18-1.11-4.19-3.63,0-1.86,1.32-3.48,4.15-3.77l0-2.05h1.49v2a7.79,7.79,0,0,1,3.69,1.08l-.73,1.84a7.42,7.42,0,0,0-2.94-1l0,3.66c2,.48,4.21,1.1,4.23,3.62C254.07,85.67,252.71,87.28,249.87,87.58Zm-1.53-7.75,0-3.23c-1.29.21-1.83.86-1.82,1.66S247.28,79.53,248.34,79.83ZM251.73,84c0-.89-.8-1.3-1.89-1.6l0,3.21C251.18,85.4,251.74,84.78,251.73,84Z"/><rect class="cls-5" x="386.57" y="211.7" width="54.04" height="55.55" rx="4.06" transform="translate(827.17 478.95) rotate(180)"/><path class="cls-12" d="M386.57,211.7h54a0,0,0,0,1,0,0v11.94a4.06,4.06,0,0,1-4.06,4.06H390.63a4.06,4.06,0,0,1-4.06-4.06V211.7A0,0,0,0,1,386.57,211.7Z" transform="translate(827.17 439.39) rotate(180)"/><rect class="cls-3" x="424.94" y="232.76" width="8.79" height="8.79" rx="0.79" transform="translate(858.68 474.32) rotate(180)"/><rect class="cls-2" x="414.63" y="232.76" width="8.79" height="8.79" rx="0.79" transform="translate(838.05 474.32) rotate(180)"/><path class="cls-13" d="M400.73,215.85a1.8,1.8,0,0,1-1.8-1.8v-6.37a1.8,1.8,0,1,1,3.6,0v6.37A1.79,1.79,0,0,1,400.73,215.85Z"/><path class="cls-13" d="M409.85,215.86a1.79,1.79,0,0,1-1.8-1.8v-6.37a1.8,1.8,0,1,1,3.6,0v6.37A1.8,1.8,0,0,1,409.85,215.86Z"/><path class="cls-13" d="M418.54,215.86a1.81,1.81,0,0,1-1.8-1.8v-6.38a1.8,1.8,0,1,1,3.6,0v6.38A1.8,1.8,0,0,1,418.54,215.86Z"/><rect class="cls-3" x="404.24" y="232.76" width="8.79" height="8.79" rx="0.79" transform="translate(817.28 474.32) rotate(180)"/><rect class="cls-3" x="393.93" y="232.76" width="8.79" height="8.79" rx="0.79" transform="translate(796.65 474.32) rotate(180)"/><rect class="cls-3" x="424.87" y="242.55" width="8.79" height="8.79" rx="0.79" transform="translate(858.53 493.9) rotate(180)"/><rect class="cls-2" x="414.55" y="242.55" width="8.79" height="8.79" rx="0.79" transform="translate(837.9 493.9) rotate(180)"/><rect class="cls-3" x="404.17" y="242.55" width="8.79" height="8.79" rx="0.79" transform="translate(817.13 493.9) rotate(180)"/><rect class="cls-3" x="393.85" y="242.55" width="8.79" height="8.79" rx="0.79" transform="translate(796.5 493.9) rotate(180)"/><rect class="cls-3" x="424.79" y="252.43" width="8.79" height="8.79" rx="0.79" transform="translate(858.38 513.65) rotate(180)"/><rect class="cls-2" x="414.48" y="252.43" width="8.79" height="8.79" rx="0.79" transform="translate(837.75 513.65) rotate(180)"/><rect class="cls-3" x="404.09" y="252.43" width="8.79" height="8.79" rx="0.79" transform="translate(816.98 513.65) rotate(180)"/><rect class="cls-3" x="393.78" y="252.43" width="8.79" height="8.79" rx="0.79" transform="translate(796.35 513.65) rotate(180)"/><path class="cls-13" d="M427.26,215.86a1.81,1.81,0,0,1-1.81-1.8v-6.38a1.81,1.81,0,0,1,3.61,0v6.38A1.81,1.81,0,0,1,427.26,215.86Z"/><path class="cls-14" d="M350.76,172.49H219a7.75,7.75,0,0,0-7.75,7.75V248.8a7.75,7.75,0,0,0,7.75,7.75H350.76a7.75,7.75,0,0,0,7.75-7.75V180.24A7.75,7.75,0,0,0,350.76,172.49Z"/><rect class="cls-5" x="207.87" y="169.8" width="147.23" height="84.05" rx="7.75"/><path class="cls-13" d="M355.1,177.55a7.75,7.75,0,0,0-7.75-7.75H215.62a7.75,7.75,0,0,0-7.75,7.75v1.21c16.12.73,47.37,6,69.17,34C302.12,245,335.84,241.82,355.1,234Z"/><rect class="cls-2" x="219.97" y="201.14" width="24.29" height="15.53" rx="2.95"/><rect class="cls-7" x="317.13" y="177.25" width="29.07" height="7.57" rx="1.22"/><path class="cls-2" d="M244.46,229.79H221.67a2.58,2.58,0,0,1-2.57-2.58h0a2.57,2.57,0,0,1,2.57-2.58h22.79a2.58,2.58,0,0,1,2.58,2.58h0A2.59,2.59,0,0,1,244.46,229.79Z"/><path class="cls-2" d="M276.72,229.79H253.93a2.58,2.58,0,0,1-2.57-2.58h0a2.57,2.57,0,0,1,2.57-2.58h22.79a2.58,2.58,0,0,1,2.58,2.58h0A2.59,2.59,0,0,1,276.72,229.79Z"/><path class="cls-2" d="M309.22,229.79H286.43a2.58,2.58,0,0,1-2.57-2.58h0a2.57,2.57,0,0,1,2.57-2.58h22.79a2.58,2.58,0,0,1,2.58,2.58h0A2.59,2.59,0,0,1,309.22,229.79Z"/><path class="cls-2" d="M341.48,229.79H318.69a2.58,2.58,0,0,1-2.57-2.58h0a2.57,2.57,0,0,1,2.57-2.58h22.79a2.58,2.58,0,0,1,2.58,2.58h0A2.59,2.59,0,0,1,341.48,229.79Z"/><path class="cls-7" d="M251.66,247.18H222a1.57,1.57,0,0,1-1.57-1.57h0A1.57,1.57,0,0,1,222,244h29.64a1.58,1.58,0,0,1,1.57,1.57h0A1.57,1.57,0,0,1,251.66,247.18Z"/><path class="cls-7" d="M341.4,247.18H326.77a1.56,1.56,0,0,1-1.56-1.57h0a1.57,1.57,0,0,1,1.56-1.57H341.4a1.57,1.57,0,0,1,1.57,1.57h0A1.57,1.57,0,0,1,341.4,247.18Z"/><g class="cls-15"><path class="cls-16" d="M224.4,200.87c2.16,2.76,5.57,9-.28,16.2"/><line class="cls-17" x1="218.41" y1="208.76" x2="227.32" y2="208.76"/><path class="cls-16" d="M239.16,200.87c-2.15,2.76-5.56,9,.29,16.2"/><line class="cls-17" x1="245.15" y1="208.76" x2="236.24" y2="208.76"/></g><path class="cls-2" d="M371.58,115.13c-6.6-6.92-7.08-9.33,3.22-19.47s8.69-24.14,8.69-24.14l-19.79-.38v0h-1.13v0l-19.79.38s-1.61,14,8.69,24.14,9.82,12.55,3.22,19.47-15.61,13.68-15.29,26.4h47.47C387.19,128.81,378.18,122.05,371.58,115.13Z"/><path class="cls-12" d="M387.26,145H339a2.66,2.66,0,0,1-2.66-2.65h0a2.66,2.66,0,0,1,2.66-2.66h48.25a2.66,2.66,0,0,1,2.66,2.66h0A2.66,2.66,0,0,1,387.26,145Z"/><path class="cls-12" d="M387.26,73.69H339A2.66,2.66,0,0,1,336.35,71h0A2.66,2.66,0,0,1,339,68.38h48.25A2.66,2.66,0,0,1,389.92,71h0A2.66,2.66,0,0,1,387.26,73.69Z"/><path class="cls-5" d="M354,92h18.72a.7.7,0,0,1,.57,1.15l-8.51,9.61a.66.66,0,0,0-.18.45v29.07a.72.72,0,0,0,.74.7h15.92a.75.75,0,0,1,.71.49l1.06,3.2a.71.71,0,0,1-.7.92H344a.71.71,0,0,1-.72-.88l.89-3.23a.72.72,0,0,1,.71-.52l16.44-.06a.72.72,0,0,0,.74-.7V103.38a.7.7,0,0,0-.17-.45l-8.5-9.77A.7.7,0,0,1,354,92Z"/><g id="_Group_" data-name="&lt;Group&gt;"><path id="_Path_2" data-name="&lt;Path&gt;" class="cls-12" d="M358.68,343.19s.17-22,13.77-23.58,18.29,2.47,20.15,3.21-3,1.75-7.19,5.81-4.11,9.12-13.46,10.78A18.12,18.12,0,0,0,359.11,348Z"/><path id="_Path_3" data-name="&lt;Path&gt;" class="cls-18" d="M359.11,348s4.37-22.57,25.45-23.49"/></g><g id="_Group_2" data-name="&lt;Group&gt;"><path id="_Path_4" data-name="&lt;Path&gt;" class="cls-12" d="M359.8,335.37s2-19-9.53-21.67-16,.3-17.67.76,2.45,1.81,5.62,5.72,2.63,8.26,10.52,10.62A15.67,15.67,0,0,1,359,339.43Z"/><path id="_Path_5" data-name="&lt;Path&gt;" class="cls-18" d="M359,339.43s-1.51-19.87-19.58-22.76"/></g><path class="cls-7" d="M361.06,292s0,.07.05.21l.12.65.18,1.05c0,.43.11.91.17,1.45a56.84,56.84,0,0,1,.2,9.29c-.19,3.92-.77,8.56-1.43,13.7A151.43,151.43,0,0,0,359,335.16a140.2,140.2,0,0,0,2.76,30.42c.76,3.85,1.59,6.91,2.13,9,.29,1.05.52,1.86.68,2.43l.17.64a1.63,1.63,0,0,1,.05.22,107,107,0,0,1-3.24-12.27,135.65,135.65,0,0,1-2.86-30.47,146.82,146.82,0,0,1,1.35-16.82c.67-5.14,1.28-9.76,1.49-13.67a60,60,0,0,0-.1-9.27q-.07-.81-.15-1.44c-.05-.42-.1-.77-.15-1.06s-.06-.49-.08-.65A.74.74,0,0,1,361.06,292Z"/><rect class="cls-19" x="346.72" y="352.49" width="28.32" height="5.39" rx="1.13"/><path class="cls-19" d="M368.07,380.65H354.64a2.22,2.22,0,0,1-2.19-1.84L348.68,357h24.39l-2.79,21.7A2.22,2.22,0,0,1,368.07,380.65Z"/><g id="_Group_3" data-name="&lt;Group&gt;"><path id="_Path_6" data-name="&lt;Path&gt;" class="cls-12" d="M360.74,312.24s1.85-14.41,10.89-14.37,11.79,3.06,12.95,3.7-2.13.9-5.17,3.23-3.41,5.66-9.67,6a12,12,0,0,0-9.09,4.59Z"/><path id="_Path_7" data-name="&lt;Path&gt;" class="cls-18" d="M360.65,315.39s4.64-14.45,18.53-13.38"/></g><g id="_Group_4" data-name="&lt;Group&gt;"><path id="_Path_8" data-name="&lt;Path&gt;" class="cls-12" d="M362.53,301.35s3.36-14.13-5.11-17.28S345.3,282.77,344,283s1.68,1.6,3.7,4.86,1.2,6.49,6.93,9a12,12,0,0,1,6.89,7.5Z"/><path id="_Path_9" data-name="&lt;Path&gt;" class="cls-18" d="M361.51,304.34s.75-15.16-12.62-19.07"/></g><path class="cls-12" d="M144.74,145.23a3.35,3.35,0,0,0-3.35-3.36H91.93a3.35,3.35,0,0,0-3.35,3.36V172a3.35,3.35,0,0,0,3.35,3.35h40.76l3.84,5.23a2.37,2.37,0,0,0,4.2-.31l3.32-6.26a3.28,3.28,0,0,0,.69-2Z"/><path class="cls-2" d="M135.35,153.85H97.5a1.07,1.07,0,0,1-1.07-1.07h0a1.07,1.07,0,0,1,1.07-1.07h37.85a1.07,1.07,0,0,1,1.07,1.07h0A1.07,1.07,0,0,1,135.35,153.85Z"/><path class="cls-2" d="M123.85,158.86H97.5a1.07,1.07,0,0,1-1.07-1.07h0a1.07,1.07,0,0,1,1.07-1.07h26.35a1.07,1.07,0,0,1,1.07,1.07h0A1.07,1.07,0,0,1,123.85,158.86Z"/><path class="cls-2" d="M130.24,164H97.5a1.07,1.07,0,0,1-1.07-1.07h0a1.07,1.07,0,0,1,1.07-1.07h32.74a1.07,1.07,0,0,1,1.07,1.07h0A1.07,1.07,0,0,1,130.24,164Z"/><g class="cls-20"><circle class="cls-5" cx="253.06" cy="318.01" r="29.58" transform="matrix(0.03, -1, 1, 0.03, -72.48, 561.31)"/></g><circle class="cls-8" cx="250.56" cy="315.93" r="29.88" transform="translate(-78.75 548.63) rotate(-86.83)"/><circle class="cls-9" cx="250.08" cy="315.46" r="22.71" transform="translate(-60.51 59.36) rotate(-12.09)"/><path class="cls-10" d="M273.44,316.28A22.41,22.41,0,1,1,250.91,294,22.4,22.4,0,0,1,273.44,316.28Z"/><path class="cls-11" d="M273.44,316.28A22.41,22.41,0,1,1,250.91,294,22.4,22.4,0,0,1,273.44,316.28Z"/><path class="cls-9" d="M251.92,314.46l0-5.73h0a11.21,11.21,0,0,1,3.05.77,9.57,9.57,0,0,1,1.43.89l.08-.17.87-2.07.2-.48-1-1.07-.49.23a10.64,10.64,0,0,0-4.16-1.18V302.5l-1-.78v.79h-1.34l0,3.21c-4.43.45-6.52,3-6.5,5.89,0,3.95,3.41,4.95,6.56,5.7l0,5.68a11,11,0,0,1-5.7-2.12l-1.26,2.87a12.5,12.5,0,0,0,7,2.32l0,2.38-1.11,0,1.11.75H252l0-3.18c4.46-.48,6.57-3,6.56-5.89C258.51,316.18,255.07,315.21,251.92,314.46Zm-2.34-.59c-1.65-.47-2.87-1.09-2.88-2.45s.84-2.28,2.85-2.6Zm2.3-5.15Zm.08,14.2,0-5c1.7.48,3,1.12,3,2.51C254.91,321.63,254,322.6,252,322.92Z"/><path class="cls-2" d="M251,325.24l0,3.19H248.7v-3.15a12.5,12.5,0,0,1-7-2.32l1.26-2.88a11,11,0,0,0,5.7,2.13l0-5.68c-3.15-.75-6.54-1.76-6.56-5.7,0-2.9,2.07-5.44,6.5-5.89l0-3.21,2.33,0,0,3.16a12.09,12.09,0,0,1,5.77,1.7l-1.14,2.87a12,12,0,0,0-4.62-1.51l0,5.74c3.16.75,6.6,1.73,6.62,5.67C257.59,322.25,255.47,324.76,251,325.24Zm-2.4-12.14,0-5.06c-2,.33-2.87,1.36-2.86,2.61S247,312.63,248.61,313.1Zm5.33,6.53c0-1.39-1.27-2-3-2.51l0,5C253.07,321.82,253.94,320.85,253.94,319.63Z"/><circle class="cls-3" cx="273.19" cy="294.49" r="12.17"/><path class="cls-21" d="M269.08,294.23l1.63,3.66a.57.57,0,0,0,.94.15l6.1-6.63"/><circle class="cls-6" cx="273.16" cy="294.45" r="10.09"/><path class="cls-22" d="M112.38,201.06s3.69-10.21,19.24-5.79c10.37,2.94,16.4,11.17,15.71,23.26-.72,12.77,7.35,8.85,2.65,27.3-3.18,12.48,11.92,22.75-1.81,42.35-11.12,15.87-74,6.73-73.37-20.65.3-12.93,11.1-6.88,11.75-27.73.27-8.85,17.13-5.9,14.87-19.32C100.29,213.79,105.64,200.21,112.38,201.06Z"/><path class="cls-23" d="M131.42,240.79a8,8,0,0,1,3.22,8.35c-1.07,5.73-1.54,11.13,3.35,15.31"/><path class="cls-23" d="M142.86,227.47c1,4.6,3,7.68.29,13.93-5.79,13.19,5.79,15.94.23,28a37.54,37.54,0,0,0-3.21,11.33"/><polygon class="cls-24" points="145.33 292.73 165.19 292.73 159.1 286.08 146.07 288.05 145.33 292.73"/><path class="cls-23" d="M109.24,234.88s-5.69,3.16-4.92,9.15c1,8.07-7,9.33-5,14.39"/><path class="cls-23" d="M106.69,213.29a21.4,21.4,0,0,0-1.7,10.09c1.23,10.39-12.87,10.61-13,21.1-.07,6.55-5.53,10.56-9.09,14.36"/><polygon id="_Path_10" data-name="&lt;Path&gt;" class="cls-25" points="203.65 411.87 203.61 423.98 192.43 424.07 190.66 414.2 203.65 411.87"/><polygon id="_Path_11" data-name="&lt;Path&gt;" class="cls-25" points="170.24 415.67 169.15 428.88 157.06 429.98 155.09 420.04 170.24 415.67"/><path class="cls-26" d="M120.37,326.23c12.84,6.9,39.59,20.56,54.76,23.31a2.93,2.93,0,0,1,2.4,2.46L186.78,415a2.9,2.9,0,0,0,2.05,2.37c3.51,1,11.47,2.37,17.63-4.21a3,3,0,0,0,.81-2.23c-.64-9.28-4.88-69.3-7.92-77.17s-46.45-16.44-51.73-17.44a2.85,2.85,0,0,0-1.05,0l-25.34,4.52A2.92,2.92,0,0,0,120.37,326.23Z"/><path class="cls-26" d="M101.76,330.28c.06,0-10.38,19.7,41.94,24.32a2.46,2.46,0,0,1,2.13,2.27l6.5,63.51a2.59,2.59,0,0,0,1.74,2.17,18.26,18.26,0,0,0,18.1-3.29,2.72,2.72,0,0,0,1-2.12c-.26-9.28-2-69.45-4.73-77.44-2.62-7.7-41.15-17.24-49.78-19.29a2.57,2.57,0,0,0-2.7,1Z"/><path class="cls-27" d="M99.34,249.65c16.33-4.86,36.13-.64,39.37.33,3.7,1.11,8.33,5.55,13.32,15.54l5,10-10,3V316.6h0a67.94,67.94,0,0,1-31.15,14.91l-13.5,2.41a2.09,2.09,0,0,1-2.46-2.12l1.55-48.51-17,.89S83.73,254.29,99.34,249.65Z"/><path class="cls-24" d="M133.12,284.87l-30.45,8.37-1.19-9.95-14.15.64S84.14,308.52,92.55,309c12.74.8,45.59-15.33,45.59-15.33Z"/><path class="cls-24" d="M128.23,208.2a5.42,5.42,0,0,1,5.44,1.17c3.45,3.57,7.76,9.83,6.3,17.81-1.69,9.23-3.88,15-9,14.89-1.65,0-2.37,1.27-2.42,2.82l-.31,4.83h0c-1.51,8.44-13.86,9.66-17.39,1.72l-.58-1.3a3.57,3.57,0,0,1,0-3c1.49-3.12,5.11-8.43,1.06-20.21-.28-.8-1.52-3.56-.73-5.5a2.64,2.64,0,0,1,4.19-.75c.3.26.71.3,1.47-.23C119,218.63,119.21,211.84,128.23,208.2Z"/><path class="cls-22" d="M129.33,208s.14,3.11,5.33,5.78c6.33,3.27,2.43,7.18,5.37,11.81,3.08,4.87.4-4.41.4-4.41l-.9-10.58c-1.79-6.87-4.41-11.37-11-10-3.54.74-7,2.07-8.79,4.44-4.83,6.25-5.89,20.5-5.89,20.5s5.31.1,8.11-6.57C125.11,211.39,124.74,210.18,129.33,208Z"/><rect class="cls-7" x="145.53" y="263.51" width="15.73" height="29.9" rx="1.8"/><path class="cls-24" d="M169.9,283.54h0c-3.29-4.6-7.88-13.22-9.44-13.4-.84-.1-1.11.64-.74,2.39,1.1,5.18,2.88,6.19-2,5.36l-6.21-1.2a1.86,1.86,0,0,0-2.11,2.49,4.39,4.39,0,0,0,.82,1.19s-1.15,3.22,1.92,4c0,0,.36,3.67,2.66,3.83a57.23,57.23,0,0,0,7.63,3.66h0a5.51,5.51,0,0,0,7.31-1.07l.39-.47A5.1,5.1,0,0,0,169.9,283.54Z"/><path class="cls-28" d="M150.79,280.4a20.87,20.87,0,0,0,5.93,1.26"/><path class="cls-28" d="M152.59,284.46a15,15,0,0,0,5.14,1"/><path class="cls-24" d="M133.12,284.87l3.69-2.68c2.67-5.31,7.59-14.93,8.48-14.46s1.24,1.58.58,3.69c-1.59,5.05-.81,7.53,2.06,7.31,1-.07,9.45-.12,9.45-.12s2,1.81-.67,3.87c0,0,.57,3.37-2.59,3.63,0,0-1,3.54-3.28,3.31a59.06,59.06,0,0,1-8.15,2.28l-4.55,2Z"/><path class="cls-28" d="M156.18,282.42a21.47,21.47,0,0,1-6.06.21"/><path class="cls-28" d="M153.71,286.1a15.11,15.11,0,0,1-5.23.09"/><path class="cls-28" d="M145.29,267.73c1,.51,1.24,1.58.58,3.69-1.59,5.05-.81,7.53,2.06,7.31,1-.07,9.45-.12,9.45-.12s2,1.81-.67,3.87c0,0,.57,3.37-2.59,3.63,0,0-1,3.54-3.28,3.31a59.06,59.06,0,0,1-8.15,2.28"/><path class="cls-28" d="M154.84,288.22c1.21.59,5.63,2.84,7.63,3.66h0"/><path class="cls-7" d="M204.72,421.89s-3.58,2.9-13.67,1.35c0,0-.71,6.32-3.46,9.62s5.22,7.29,11.19,5.44,10.43,2.55,16.34,1.83,14.42-7.14,11.26-9.05-14.38-1.85-17.17-6.23A6.83,6.83,0,0,0,204.72,421.89Z"/><path class="cls-29" d="M212.25,437.68c5.41,1.61,11.45-4.67,11.45-4.67"/><path class="cls-29" d="M190.05,433.91s2.15,2.56,7.08,2a38.11,38.11,0,0,1,15.12,1.72"/><path class="cls-7" d="M170.52,426.47s-5.63,4-15.62,1.89c0,0,.14,6-2.79,9.15s4.8,7.57,10.87,6.06,10.27,3.13,16.21,2.74S194,440,190.94,437.9s-15.36-3.49-17.91-8A11.25,11.25,0,0,0,170.52,426.47Z"/><path class="cls-29" d="M176.46,443.7c5.31,1.91,11.7-4,11.7-4"/><path class="cls-29" d="M154.51,438.7s2,2.68,7,2.45a38,38,0,0,1,15,2.55"/><path class="cls-29" d="M170.07,351.62c-.5-5.8-1.06-10.15-1.66-11.92-1.5-4.42-14.82-9.44-27.54-13.3"/><path class="cls-29" d="M169.72,382.91c-.39-9.09-.86-18.66-1.42-26.73"/><path class="cls-29" d="M159.17,421.3a17.39,17.39,0,0,0,10.7-4.35,2.65,2.65,0,0,0,1-2.11c-.08-3-.32-11.28-.69-21.4"/><path class="cls-6" d="M155.4,339.3s.33,8.35,10,11.29"/><path class="cls-6" d="M188.47,332.26a20.5,20.5,0,0,0,10.14,11.95"/><path class="cls-6" d="M190.66,414.2a24,24,0,0,0,13.85-4.51"/><path class="cls-30" d="M108.4,251.21s1.72,10,14.57,7.4"/><path class="cls-30" d="M129.72,251.91s.11,2.79-3.57,5"/><line class="cls-30" x1="86.86" y1="281.8" x2="97.49" y2="281.71"/><line class="cls-30" x1="101.57" y1="283.09" x2="102.69" y2="275.98"/><path class="cls-30" d="M117.71,326.82a95.09,95.09,0,0,1-13.66,2.62"/><path class="cls-30" d="M143.13,314.53s-6.12,5.62-18.56,10.13"/><path class="cls-30" d="M126.86,318.6a25.86,25.86,0,0,1-8.23,1.81"/><path class="cls-30" d="M143,308.71a64.27,64.27,0,0,1-10.9,7.49"/><path class="cls-6" d="M119.55,333.73s3.44,7.37-2.29,12.77"/></g></g></svg>