<?xml version="1.0" encoding="utf-8"?>
<!-- Generator: Adobe Illustrator 24.0.1, SVG Export Plug-In . SVG Version: 6.00 Build 0)  -->
<svg version="1.1" id="Layer_1" xmlns="http://www.w3.org/2000/svg" xmlns:xlink="http://www.w3.org/1999/xlink" x="0px" y="0px"
	 viewBox="0 0 408 408" style="enable-background:new 0 0 408 408;" xml:space="preserve">
<style type="text/css">
	.st0{fill:#FFFFFF;}
	.st1{fill:#003984;stroke:#000000;stroke-width:4.000000e-02;}
	.st2{fill:#FFFFFF;stroke:#000000;stroke-width:4.000000e-02;}
</style>
<g transform="matrix(20.220402,0,0,-20.224508,229.90052,406.00002)">
	<path class="st0" d="M-9,0c-1.3,0-2.4,1.1-2.4,2.4v15.3c0,1.3,1.1,2.4,2.4,2.4H6.3c1.3,0,2.4-1.1,2.4-2.4V2.4C8.7,1.1,7.6,0,6.3,0
		C6.3,0-9,0-9,0z"/>
</g>
<g transform="matrix(20.220402,0,0,-20.224508,229.90052,210.03659)">
	<path class="st1" d="M-9,10c-1.1,0-2-0.9-2-2V-7.3c0-1.1,0.9-2,2-2H6.3c1.1,0,2,0.9,2,2V8c0,1.1-0.9,2-2,2C6.3,10-9,10-9,10z"/>
</g>
<g transform="matrix(20.220402,0,0,-20.224508,292.85278,232.41299)">
	<path class="st2" d="M-5.8,8.8c0,0.7-0.6,1.3-1.3,1.3c-0.7,0-1.3-0.6-1.3-1.3c0-0.7,0.6-1.3,1.3-1.3C-6.4,7.5-5.8,8.1-5.8,8.8"/>
</g>
<g transform="matrix(20.220402,0,0,-20.224508,331.08162,305.17494)">
	<path class="st2" d="M-3.8,5.1l-4.3,5.2c-0.2,0.3-1.5,0.5-2,0l-2.1-3.8l0.5-3.2c0.5-0.8,1.6,0,1.3,0.5l-0.3,2.3l0.9,1.7l0-4.1
		l-1.9-5.8c-0.4-1.2,1.5-1.8,1.8-0.6l2.3,6.4l0,3.3l-1.1,1.3c-0.1,0.1,0,0.2,0,0.2c0.1,0.1,0.2,0,0.2,0L-5,4.3
		C-4.4,3.5-3.2,4.3-3.8,5.1"/>
</g>
<g transform="matrix(20.220402,0,0,-20.224508,314.81002,376.76962)">
	<path class="st2" d="M-4.6,1.5l-2.1,5.2l-0.9-2.4l1.2-3.5C-5.9-0.4-4.1,0.3-4.6,1.5"/>
</g>
<g transform="matrix(20.220402,0,0,-20.224508,370.22007,388.69992)">
	<path class="st2" d="M-1.8,0.9C-1.8,0.9-1.8,0.9-1.8,0.9c0.1-0.1,0.2-0.1,0.3,0c0.1,0.1,0.1,0.2,0,0.3l-4,6.9c0,0,0,0,0,0
		c-0.1,0.1-0.2,0.1-0.3,0c-0.1-0.1-0.1-0.2,0-0.3C-5.8,7.7-1.8,0.9-1.8,0.9z"/>
</g>
</svg>
