<?xml version="1.0" encoding="utf-8"?>
<!-- Generator: Adobe Illustrator 24.0.1, SVG Export Plug-In . SVG Version: 6.00 Build 0)  -->
<svg version="1.1" id="Layer_1" xmlns="http://www.w3.org/2000/svg" xmlns:xlink="http://www.w3.org/1999/xlink" x="0px" y="0px"
	 viewBox="0 0 408 408" style="enable-background:new 0 0 408 408;" xml:space="preserve">
<style type="text/css">
	.st0{fill:#FFFFFF;}
	.st1{fill:#003984;stroke:#000000;stroke-width:4.000000e-02;}
	.st2{fill:#FFFFFF;stroke:#000000;stroke-width:4.000000e-02;}
</style>
<g transform="matrix(20.220392,0,0,-20.224502,25.900503,202)">
	<path class="st0" d="M1.2-10.2c-1.3,0-2.4,1.1-2.4,2.4V7.5c0,1.3,1.1,2.4,2.4,2.4h15.3c1.3,0,2.4-1.1,2.4-2.4V-7.8
		c0-1.3-1.1-2.4-2.4-2.4C16.5-10.2,1.2-10.2,1.2-10.2z"/>
</g>
<g transform="matrix(20.220392,0,0,-20.224502,25.900503,6.03671)">
	<path class="st1" d="M1.2-0.2c-1.1,0-2-0.9-2-2v-15.3c0-1.1,0.9-2,2-2h15.3c1.1,0,2,0.9,2,2v15.3c0,1.1-0.9,2-2,2
		C16.5-0.2,1.2-0.2,1.2-0.2z"/>
</g>
<g transform="matrix(20.220392,0,0,-20.224502,86.047915,50.63399)">
	<path class="st2" d="M4.3-2.5c0.7,0,1.3,0.6,1.3,1.3c0,0.7-0.6,1.3-1.3,1.3c-0.7,0-1.3-0.6-1.3-1.3C2.9-1.9,3.5-2.5,4.3-2.5"/>
</g>
<g transform="matrix(20.220392,0,0,-20.224502,151.17183,150.29388)">
	<path class="st2" d="M7.6-7.6C7.8-7.9,8.3-8,8.7-7.8C9-7.6,9.2-7.1,8.9-6.7l-2.3,4C6.5-2.6,6.3-2.4,6-2.4H2.6l0,1h2.4
		c0.3,0,0.6,0.3,0.6,0.6c0,0.3-0.3,0.6-0.6,0.6H2.5L2.5,1c0,0.7-0.7,1.3-1.4,1.2c-0.7,0-1.3-0.7-1.2-1.4l0.2-4.1
		C0.2-4,0.8-4.5,1.5-4.5h4.4C5.8-4.5,7.6-7.6,7.6-7.6z"/>
</g>
<g transform="matrix(20.220392,0,0,-20.224502,94.657605,165.58182)">
	<path class="st2" d="M4.7-8.3c-2.2,0-4,1.8-4,4c0,1.2,0.5,2.3,1.4,3L2.1-0.1C0.6-1-0.3-2.5-0.3-4.3c0-2.8,2.3-5.1,5.1-5.1
		c2.1,0,3.8,1.2,4.6,3L8.6-5.2C8.2-7,6.6-8.3,4.7-8.3"/>
</g>
</svg>
